<svg width="80" height="70" viewBox="0 0 80 70" fill="none" xmlns="http://www.w3.org/2000/svg">
<path d="M74.1294 0.000154855H48.5426C47.894 0.000154855 47.3684 0.52153 47.3684 1.16453C47.3684 1.80754 47.894 2.32891 48.5426 2.32891H74.1292C76.0714 2.32891 77.6517 3.89583 77.6517 5.82189V46.5724H72.0223L72.0222 10.8048C72.0222 8.87872 70.4419 7.3118 68.4997 7.3118H11.5003C9.55799 7.3118 7.97783 8.87872 7.97783 10.8048V46.5724H2.34829V5.82174C2.34829 3.89567 3.9286 2.32876 5.87079 2.32876H43.8459C44.4945 2.32876 45.0201 1.80738 45.0201 1.16438C45.0201 0.521375 44.4945 0 43.8459 0H5.87079C2.6336 0.000154941 0 2.61168 0 5.82174V52.9001C0 56.1102 2.6336 58.7217 5.87079 58.7217H31.6882L30.5047 67.6712H26.3326C25.684 67.6712 25.1583 68.1926 25.1583 68.8356C25.1583 69.4786 25.684 70 26.3326 70H53.6675C54.316 70 54.8417 69.4786 54.8417 68.8356C54.8417 68.1926 54.316 67.6712 53.6675 67.6712H49.4954L48.312 58.7217H60.754C61.4026 58.7217 61.9282 58.2003 61.9282 57.5573C61.9282 56.9143 61.4026 56.393 60.754 56.393H5.87079C3.9286 56.393 2.34829 54.826 2.34829 52.9V48.9008H77.6517V52.9C77.6517 54.826 76.0714 56.393 74.1292 56.393H65.4506C64.802 56.393 64.2764 56.9143 64.2764 57.5573C64.2764 58.2003 64.802 58.7217 65.4506 58.7217H74.1292C77.3664 58.7217 80 56.1102 80 52.9001V5.82174C80.0002 2.61168 77.3666 0.000154855 74.1294 0.000154855ZM47.127 67.6712H32.8733L34.0568 58.7217H45.9434L47.127 67.6712ZM10.3261 10.8046C10.3261 10.1626 10.8528 9.64025 11.5003 9.64025H68.4998C69.1473 9.64025 69.674 10.1626 69.674 10.8046V16.5351H10.3261V10.8046ZM10.3261 18.8639H69.674V46.5724H63.9656V41.382C63.9656 40.739 63.44 40.2176 62.7914 40.2176H42.8109C42.1623 40.2176 41.6366 40.739 41.6366 41.382V46.5724H38.3634V41.382C38.3634 40.739 37.8377 40.2176 37.1891 40.2176H17.2088C16.5602 40.2176 16.0346 40.739 16.0346 41.382V46.5724H10.3261V18.8639ZM61.6172 46.5722H43.9851V42.5462H61.6172V46.5722ZM36.0151 46.5722H18.383V42.5462H36.0151V46.5722Z" fill="#B9A05C"/>
<path d="M14.8044 11.2097C13.81 11.2097 13.001 12.0119 13.001 12.9981C13.001 13.9843 13.81 14.7865 14.8044 14.7865C15.7988 14.7865 16.6079 13.9842 16.6079 12.9981C16.608 12.0121 15.799 11.2097 14.8044 11.2097Z" fill="#B9A05C"/>
<path d="M20.5924 11.2097C19.598 11.2097 18.7889 12.0119 18.7889 12.9981C18.7889 13.9843 19.598 14.7865 20.5924 14.7865C21.5868 14.7865 22.3958 13.9842 22.3958 12.9981C22.3958 12.0121 21.5868 11.2097 20.5924 11.2097Z" fill="#B9A05C"/>
<path d="M26.3802 11.2097C25.3858 11.2097 24.5768 12.0119 24.5768 12.9981C24.5768 13.9843 25.3858 14.7865 26.3802 14.7865C27.3748 14.7865 28.1838 13.9842 28.1838 12.9981C28.1838 12.0121 27.3748 11.2097 26.3802 11.2097Z" fill="#B9A05C"/>
<path d="M17.2088 37.3755H25.7508C26.3994 37.3755 26.925 36.8542 26.925 36.2112C26.925 35.5682 26.3994 35.0468 25.7508 35.0468H18.3828V24.8303H61.6146V35.0468H30.4474C29.7988 35.0468 29.2732 35.5682 29.2732 36.2112C29.2732 36.8542 29.7988 37.3755 30.4474 37.3755H62.7887C63.4373 37.3755 63.9629 36.8542 63.9629 36.2112V23.6661C63.9629 23.0231 63.4373 22.5017 62.7887 22.5017H17.2088C16.5602 22.5017 16.0345 23.0231 16.0345 23.6661V36.2113C16.0345 36.8543 16.5602 37.3755 17.2088 37.3755Z" fill="#B9A05C"/>
</svg>
